<mxfile host="app.diagrams.net" agent="Mozilla/5.0 (Macintosh; Intel Mac OS X 10_15_7) AppleWebKit/605.1.15 (KHTML, like Gecko) Version/18.2 Safari/605.1.15" version="28.2.3">
  <diagram name="Page-1" id="uHHyhAFm5HUzZ9thbyfu">
    <mxGraphModel dx="1017" dy="573" grid="1" gridSize="10" guides="1" tooltips="1" connect="1" arrows="1" fold="1" page="1" pageScale="1" pageWidth="827" pageHeight="1169" background="#ffffff" math="0" shadow="0">
      <root>
        <mxCell id="0" />
        <mxCell id="1" parent="0" />
        <mxCell id="iKF9u67olvBEB8EARNU1-1" value="Functional,&lt;div&gt;Regression,&lt;/div&gt;&lt;div&gt;Smoke,&lt;/div&gt;&lt;div&gt;Sanity&lt;/div&gt;&lt;div&gt;(QA)&lt;/div&gt;" style="html=1;fillColor=#10739E;strokeColor=none;shadow=0;fontSize=12;fontColor=#FFFFFF;align=center;fontStyle=0;whiteSpace=wrap;rounded=0;" vertex="1" parent="1">
          <mxGeometry x="329" y="215" width="100" height="100" as="geometry" />
        </mxCell>
        <mxCell id="iKF9u67olvBEB8EARNU1-2" value="Exploratory,&lt;div&gt;User Acceptance,&lt;/div&gt;&lt;div&gt;Usability,&lt;/div&gt;&lt;div&gt;Cross-browser,&lt;/div&gt;&lt;div&gt;Alpha/Beta&lt;/div&gt;&lt;div&gt;(QA)&lt;/div&gt;" style="html=1;fillColor=#F2931E;strokeColor=none;shadow=0;fontSize=12;fontColor=#FFFFFF;align=center;fontStyle=0;whiteSpace=wrap;rounded=0;" vertex="1" parent="1">
          <mxGeometry x="434" y="215" width="100" height="100" as="geometry" />
        </mxCell>
        <mxCell id="iKF9u67olvBEB8EARNU1-3" value="Unit&lt;div&gt;Component&lt;/div&gt;&lt;div&gt;Integration / API&lt;/div&gt;&lt;div&gt;(Dev + QA)&lt;/div&gt;" style="html=1;fillColor=#AE4132;strokeColor=none;shadow=0;fontSize=12;fontColor=#FFFFFF;align=center;fontStyle=0;whiteSpace=wrap;rounded=0;" vertex="1" parent="1">
          <mxGeometry x="329" y="320" width="100" height="100" as="geometry" />
        </mxCell>
        <mxCell id="iKF9u67olvBEB8EARNU1-4" value="Performance,&lt;div&gt;Security, Load,&lt;/div&gt;&lt;div&gt;Scalability&lt;/div&gt;&lt;div&gt;Out of scope - (QA)&lt;/div&gt;" style="html=1;fillColor=#23445D;strokeColor=none;shadow=0;fontSize=12;fontColor=#FFFFFF;align=center;fontStyle=0;whiteSpace=wrap;rounded=0;" vertex="1" parent="1">
          <mxGeometry x="434" y="320" width="100" height="100" as="geometry" />
        </mxCell>
        <mxCell id="iKF9u67olvBEB8EARNU1-5" value="Tecxhnology facing" style="html=1;fillColor=#CCCCCC;strokeColor=none;shadow=0;fontSize=14;fontColor=#FFFFFF;align=center;fontStyle=1;whiteSpace=wrap;horizontal=0;rounded=0;rotation=90;" vertex="1" parent="1">
          <mxGeometry x="414.5" y="337.5" width="30" height="205" as="geometry" />
        </mxCell>
        <mxCell id="iKF9u67olvBEB8EARNU1-6" value="Tests that supporting a team" style="html=1;fillColor=#CCCCCC;strokeColor=none;shadow=0;fontSize=14;fontColor=#FFFFFF;align=center;fontStyle=1;whiteSpace=wrap;horizontal=0;rounded=0;" vertex="1" parent="1">
          <mxGeometry x="294" y="220" width="30" height="200" as="geometry" />
        </mxCell>
        <mxCell id="iKF9u67olvBEB8EARNU1-7" value="Business facing" style="html=1;fillColor=#CCCCCC;strokeColor=none;shadow=0;fontSize=14;fontColor=#FFFFFF;align=center;fontStyle=1;whiteSpace=wrap;rounded=0;" vertex="1" parent="1">
          <mxGeometry x="329" y="180" width="211" height="30" as="geometry" />
        </mxCell>
        <mxCell id="iKF9u67olvBEB8EARNU1-8" value="Tests that critique a product" style="html=1;fillColor=#CCCCCC;strokeColor=none;shadow=0;fontSize=14;fontColor=#FFFFFF;align=center;fontStyle=1;whiteSpace=wrap;rounded=0;rotation=-90;" vertex="1" parent="1">
          <mxGeometry x="455" y="300" width="200" height="30" as="geometry" />
        </mxCell>
        <mxCell id="iKF9u67olvBEB8EARNU1-10" value="Auto + manual" style="ellipse;shape=doubleEllipse;whiteSpace=wrap;html=1;" vertex="1" parent="1">
          <mxGeometry x="259" y="160" width="100" height="60" as="geometry" />
        </mxCell>
        <mxCell id="iKF9u67olvBEB8EARNU1-11" value="Auto" style="ellipse;shape=doubleEllipse;whiteSpace=wrap;html=1;" vertex="1" parent="1">
          <mxGeometry x="259" y="420" width="100" height="60" as="geometry" />
        </mxCell>
        <mxCell id="iKF9u67olvBEB8EARNU1-12" value="Manual" style="ellipse;shape=doubleEllipse;whiteSpace=wrap;html=1;" vertex="1" parent="1">
          <mxGeometry x="510" y="155" width="100" height="60" as="geometry" />
        </mxCell>
        <mxCell id="iKF9u67olvBEB8EARNU1-13" value="Tools for auto" style="ellipse;shape=doubleEllipse;whiteSpace=wrap;html=1;" vertex="1" parent="1">
          <mxGeometry x="500" y="410" width="100" height="60" as="geometry" />
        </mxCell>
      </root>
    </mxGraphModel>
  </diagram>
</mxfile>
